<svg width="32" height="33" viewBox="0 0 32 33" fill="none" xmlns="http://www.w3.org/2000/svg">
<path fill-rule="evenodd" clip-rule="evenodd" d="M3.19153 8.58974L3.35391 8.40707C3.94903 7.78475 4.83562 7.47339 6.01287 7.47339H26.1884C27.2979 7.47339 28.1504 7.74416 28.7459 8.28528L28.7662 8.30558C28.888 8.41397 29.0102 8.54225 29.1316 8.69123C29.1316 8.70503 29.1385 8.71843 29.1518 8.73183L29.1721 8.75212C29.6191 9.30705 29.842 10.0917 29.842 11.1066V22.5949C29.8286 25.0306 28.6107 26.2484 26.1884 26.2484H6.01287C3.59058 26.2351 2.37964 25.0172 2.37964 22.5949V11.1066C2.37964 10.0106 2.65041 9.17147 3.19153 8.58974ZM26.8582 9.46253C26.6553 9.40854 26.432 9.38784 26.1888 9.40164H6.01287C5.86388 9.38824 5.7218 9.39474 5.58662 9.42194L16.0398 20.0172L26.8582 9.46253ZM4.30789 10.8833C4.29449 10.9511 4.29449 11.0254 4.30789 11.1066V22.5949C4.30789 23.7454 4.87621 24.3202 6.01287 24.3202H26.1884C27.3385 24.3202 27.9137 23.7454 27.9137 22.5949V11.1269L16.7096 22.0672C16.5066 22.2568 16.2768 22.3514 16.0199 22.3514C15.7491 22.338 15.5189 22.243 15.3298 22.0672L4.30789 10.8833Z" fill="#9F846D"/>
<path fill-rule="evenodd" clip-rule="evenodd" d="M3.19171 8.58966C3.21891 8.54906 3.2526 8.50847 3.2932 8.46787C3.307 8.44068 3.32689 8.42038 3.35409 8.40698L3.19171 8.58966Z" fill="#9F846D"/>
</svg>
