<svg width="317" height="308" viewBox="0 0 317 308" fill="none" xmlns="http://www.w3.org/2000/svg">
<path d="M4.1661 75.1594C4.42761 75.1588 4.68912 75.1582 4.95855 75.1575C5.24992 75.1589 5.54129 75.1602 5.84149 75.1615C6.14438 75.1628 6.44727 75.1641 6.75935 75.1654C7.64272 75.1713 8.52603 75.1795 9.40937 75.189C10.0709 75.1956 10.7325 75.2005 11.394 75.2054C12.613 75.2151 13.8317 75.2314 15.0505 75.2515C15.5364 75.2588 16.0223 75.2642 16.5083 75.2679C17.199 75.2737 17.8893 75.2862 18.5799 75.3003C18.7862 75.3006 18.9926 75.3009 19.2052 75.3013C20.6056 75.3395 21.4201 75.6432 22.4874 76.5408C22.9222 77.1193 22.9222 77.1193 23.2547 77.7561C23.4496 78.1215 23.4496 78.1215 23.6485 78.4943C23.785 78.76 23.9215 79.0257 24.0622 79.2995C24.2851 79.7204 24.2851 79.7204 24.5125 80.1499C24.8387 80.7663 25.1632 81.3836 25.4862 82.0016C26.3231 83.602 27.1791 85.1922 28.032 86.7842C28.3313 87.3432 28.6299 87.9026 28.9284 88.4621C30.0136 90.4954 31.1089 92.5223 32.2243 94.5394C33.722 97.2482 35.1742 99.9802 36.6264 102.713C37.9867 105.272 39.3603 107.823 40.7631 110.36C41.9621 112.533 43.1304 114.722 44.298 116.911C45.5938 119.341 46.8946 121.768 48.2267 124.178C49.5588 126.589 50.8595 129.015 52.1553 131.445C53.5854 134.126 55.0259 136.801 56.4949 139.462C58.2791 142.697 60.0239 145.954 61.7737 149.208C63.3064 146.049 64.6141 142.802 65.9394 139.553C66.1813 138.962 66.4232 138.37 66.6653 137.779C67.0327 136.882 67.4 135.985 67.7671 135.088C68.8453 132.453 69.9312 129.82 71.0195 127.189C71.371 126.339 71.7223 125.489 72.0736 124.639C72.161 124.427 72.2484 124.216 72.3384 123.998C73.9306 120.144 75.5169 116.288 77.1042 112.432C77.8133 110.709 78.5228 108.987 79.2324 107.265C79.6332 106.292 80.0339 105.319 80.4347 104.346C80.5338 104.106 80.6329 103.865 80.7351 103.617C82.045 100.437 83.353 97.2562 84.6588 94.0745C85.2418 92.6541 85.8252 91.234 86.4096 89.8143C86.5212 89.5431 86.6328 89.272 86.7478 88.9926C86.9674 88.4591 87.187 87.9256 87.4067 87.3921C87.9769 86.0058 88.5439 84.6183 89.1058 83.2286C89.4036 82.4927 89.7036 81.7576 90.004 81.0227C90.1974 80.5473 90.3877 80.0706 90.5779 79.5939C91.1926 78.0949 91.7604 76.874 92.9318 75.7334C93.6686 75.4894 94.1293 75.4247 94.8898 75.409C95.237 75.401 95.237 75.401 95.5913 75.3927C95.8425 75.3882 96.0936 75.3838 96.3524 75.3791C96.6145 75.3735 96.8766 75.3679 97.1466 75.3621C97.9995 75.3444 98.8524 75.3285 99.7053 75.3129C100.287 75.3014 100.868 75.2898 101.45 75.2783C105.565 75.1992 109.678 75.1577 113.794 75.1951C113.884 75.5504 113.973 75.9057 114.065 76.2717C113.232 76.8236 112.711 76.9593 111.745 77.1632C108.887 77.8586 106.807 78.9228 105.124 81.3853C104.107 83.5972 103.884 85.6921 103.903 88.0961C103.901 88.4316 103.899 88.7671 103.898 89.1128C103.894 90.0347 103.895 90.9565 103.899 91.8784C103.901 92.8763 103.897 93.8741 103.894 94.872C103.89 96.8232 103.891 98.7744 103.894 100.726C103.896 102.312 103.897 103.899 103.895 105.486C103.895 105.826 103.895 105.826 103.895 106.172C103.894 106.632 103.894 107.092 103.894 107.552C103.891 111.859 103.894 116.166 103.9 120.473C103.905 124.164 103.904 127.854 103.899 131.544C103.893 135.836 103.891 140.128 103.894 144.42C103.895 144.878 103.895 145.337 103.895 145.795C103.895 146.02 103.896 146.246 103.896 146.478C103.897 148.062 103.895 149.645 103.893 151.229C103.89 153.16 103.89 155.092 103.896 157.024C103.899 158.008 103.9 158.993 103.897 159.977C103.893 161.047 103.897 162.117 103.903 163.187C103.9 163.494 103.898 163.801 103.895 164.117C103.92 166.667 104.297 169.761 106.188 171.667C108.318 173.249 110.793 174.135 113.349 174.771C114.065 175.045 114.065 175.045 114.878 176.122C104.059 176.122 93.2407 176.122 82.0942 176.122C82.3651 175.045 82.3651 175.045 82.6361 174.776C83.0353 174.695 83.4365 174.624 83.8384 174.557C86.3523 174.066 88.5209 173.254 90.2224 171.277C91.9492 168.602 92.1991 166.019 92.1841 162.915C92.1846 162.562 92.1851 162.21 92.1855 161.847C92.1868 160.873 92.1846 159.899 92.1819 158.924C92.1795 157.873 92.1803 156.821 92.1807 155.769C92.181 153.948 92.1793 152.126 92.1763 150.305C92.1719 147.672 92.1705 145.039 92.1698 142.406C92.1686 138.134 92.165 133.861 92.1599 129.589C92.1549 125.44 92.151 121.29 92.1488 117.141C92.1486 116.885 92.1485 116.629 92.1483 116.365C92.1476 115.082 92.1469 113.798 92.1462 112.514C92.1406 101.869 92.1311 91.2233 92.119 80.5779C91.9445 80.9671 91.7701 81.3564 91.5958 81.7456C91.4986 81.9624 91.4015 82.1791 91.3014 82.4025C91.0279 83.0165 90.7623 83.633 90.5041 84.2536C90.4141 84.4695 90.3241 84.6854 90.2313 84.9079C90.1372 85.1346 90.0431 85.3613 89.9462 85.5948C89.7937 85.961 89.7937 85.961 89.6382 86.3347C89.3076 87.1294 88.9775 87.9243 88.6476 88.7193C88.4762 89.1318 88.4762 89.1318 88.3014 89.5525C86.6354 93.5626 84.984 97.5782 83.3472 101.6C82.0626 104.756 80.7681 107.908 79.4695 111.058C79.0563 112.06 78.6432 113.062 78.2301 114.065C78.0736 114.444 78.0736 114.444 77.9139 114.832C76.6859 117.812 75.4615 120.793 74.2369 123.775C72.5758 127.819 70.9131 131.862 69.2477 135.904C67.0585 141.218 67.0585 141.218 64.8726 146.533C64.7514 146.828 64.6301 147.122 64.5052 147.426C64.397 147.69 64.2887 147.953 64.1772 148.225C64.0386 148.562 64.0386 148.562 63.8972 148.906C63.296 150.418 63.1551 151.574 63.7868 153.111C63.9648 153.446 64.147 153.778 64.3328 154.108C64.4308 154.29 64.5288 154.471 64.6297 154.658C64.9497 155.249 65.2751 155.837 65.6007 156.424C65.8246 156.835 66.0481 157.246 66.2712 157.657C66.722 158.486 67.175 159.314 67.6299 160.141C68.2084 161.194 68.7806 162.25 69.3494 163.307C71.1271 166.61 72.9254 169.9 74.7788 173.161C74.9287 173.425 75.0786 173.689 75.233 173.961C76.5149 176.213 77.8092 178.458 79.1139 180.697C79.2156 180.872 79.3173 181.046 79.4221 181.226C82.3176 186.191 85.337 191.036 88.592 195.776C89.1535 196.598 89.707 197.424 90.2594 198.252C91.1373 199.562 92.0359 200.853 92.9657 202.127C93.1139 202.33 93.2621 202.534 93.4149 202.743C103.193 216.065 115.737 230.314 132.97 233.069C141.323 234.124 149.998 232.159 156.755 227.09C161.245 223.572 164.681 219.45 166.628 214.07C166.719 213.83 166.811 213.591 166.906 213.344C168.466 208.45 167.708 202.392 165.493 197.804C163.425 193.989 160.414 191.763 156.332 190.386C155.397 190.161 154.465 189.96 153.519 189.787C152.81 189.579 152.81 189.579 152.268 188.771C155.721 187.628 159.717 188.779 162.851 190.285C167.702 192.739 170.608 196.566 172.626 201.507C174.342 206.823 173.737 212.695 171.301 217.67C170.387 219.425 169.339 220.961 167.982 222.413C167.858 222.548 167.733 222.683 167.605 222.822C160.599 230.326 150.532 234.287 140.309 234.824C139.725 234.842 139.142 234.852 138.558 234.858C138.343 234.861 138.129 234.863 137.908 234.866C133.204 234.912 128.681 234.864 124.09 233.717C123.795 233.648 123.795 233.648 123.494 233.578C111.611 230.743 101.507 223.202 92.6609 215.147C92.5109 215.011 92.3608 214.876 92.2063 214.736C88.7934 211.653 88.7934 211.653 87.3765 209.965C86.9596 209.482 86.5179 209.045 86.0567 208.603C85.0512 207.62 84.1785 206.547 83.2954 205.456C82.7404 204.778 82.1723 204.115 81.5955 203.455C79.538 201.091 77.701 198.572 75.8626 196.038C75.6524 195.751 75.6524 195.751 75.438 195.458C68.0526 185.35 61.8946 174.215 55.983 163.212C55.4286 162.186 54.8652 161.165 54.3007 160.144C52.5412 156.962 50.8526 153.746 49.1735 150.522C48.5978 149.419 48.0148 148.321 47.4308 147.223C46.343 145.176 45.2683 143.122 44.1964 141.067C44.0348 140.757 43.8732 140.447 43.7066 140.128C42.3972 137.618 42.3972 137.618 41.8315 136.532C40.2552 133.508 38.6526 130.502 37.0016 127.518C35.9748 125.656 34.9834 123.777 34.0023 121.891C32.9248 119.82 31.8309 117.76 30.7002 115.717C29.293 113.173 27.9179 110.613 26.5515 108.047C26.446 107.849 26.3406 107.651 26.232 107.447C24.9409 105.022 23.6585 102.592 22.3858 100.158C21.2116 97.9117 20.003 95.6862 18.7793 93.4665C17.9089 91.8876 17.0421 90.307 16.188 88.7193C16.0842 88.5284 15.9804 88.3374 15.8735 88.1407C15.172 86.8306 15.172 86.8306 15.172 86.2298C14.9932 86.2298 14.8143 86.2298 14.6301 86.2298C14.6461 96.4014 14.6663 106.573 14.6921 116.745C14.6952 117.946 14.6982 119.147 14.7012 120.348C14.7018 120.588 14.7024 120.827 14.703 121.073C14.7126 124.944 14.7193 128.814 14.725 132.685C14.7309 136.657 14.7399 140.63 14.7517 144.602C14.7589 147.053 14.7637 149.504 14.7654 151.954C14.7668 153.635 14.7712 155.317 14.7779 156.998C14.7817 157.967 14.7842 158.937 14.7832 159.906C14.7821 160.959 14.7873 162.012 14.793 163.064C14.7917 163.369 14.7904 163.673 14.789 163.986C14.8172 167.122 15.6133 170.098 17.9015 172.375C19.92 174.041 22.1336 174.542 24.6549 175.045C24.7443 175.401 24.8337 175.756 24.9258 176.122C17.5942 176.122 10.2626 176.122 2.70874 176.122C2.84286 175.589 2.84286 175.589 2.97968 175.045C3.39198 174.929 3.39198 174.929 3.81261 174.811C4.16719 174.71 4.52174 174.608 4.87626 174.507C5.33152 174.377 5.33152 174.377 5.79598 174.245C8.30356 173.451 10.3121 172.392 11.7662 170.139C12.9709 167.671 13.0843 164.993 13.0751 162.301C13.0761 161.976 13.0772 161.651 13.0782 161.316C13.0805 160.42 13.0804 159.525 13.0793 158.629C13.0786 157.661 13.0811 156.692 13.0831 155.724C13.0865 153.829 13.087 151.934 13.0864 150.039C13.0859 148.498 13.0864 146.957 13.0875 145.416C13.0877 145.197 13.0878 144.977 13.088 144.75C13.0883 144.304 13.0887 143.858 13.089 143.411C13.0919 139.229 13.0914 135.046 13.0897 130.864C13.0883 127.042 13.0914 123.221 13.0965 119.4C13.1018 115.471 13.104 111.542 13.103 107.613C13.1025 105.409 13.1031 103.206 13.107 101.002C13.1102 99.1258 13.1106 97.2496 13.1073 95.3735C13.1057 94.4175 13.1054 93.4616 13.1087 92.5056C13.1122 91.4663 13.1093 90.427 13.1059 89.3877C13.1089 88.9407 13.1089 88.9407 13.1119 88.4848C13.0889 85.1574 12.5394 81.7223 10.0739 79.2837C8.01069 77.6235 5.55829 76.955 2.97968 76.5408C2.82728 76.0194 2.82728 76.0194 2.70874 75.4643C3.13771 75.0382 3.57035 75.1602 4.1661 75.1594Z" fill="#E3BC9A"/>
<path d="M156.277 75.3635C156.475 75.3635 156.673 75.3635 156.878 75.3635C157.106 75.3616 157.335 75.3597 157.57 75.3577C157.949 75.3606 157.949 75.3606 158.336 75.3637C158.603 75.3626 158.87 75.3615 159.146 75.3604C160.047 75.3578 160.948 75.361 161.85 75.3642C162.493 75.3635 163.137 75.3625 163.781 75.3612C165.352 75.3589 166.923 75.3604 168.494 75.3637C170.323 75.3674 172.152 75.3669 173.98 75.3664C177.244 75.3655 180.507 75.3687 183.771 75.3739C186.938 75.379 190.105 75.3809 193.272 75.3794C196.719 75.3778 200.166 75.3779 203.613 75.3809C203.981 75.3812 204.348 75.3816 204.716 75.3819C204.897 75.3821 205.078 75.3822 205.264 75.3824C206.539 75.3834 207.814 75.3833 209.089 75.3828C210.805 75.3823 212.522 75.3845 214.238 75.3887C214.869 75.3899 215.5 75.3901 216.131 75.3894C216.99 75.3885 217.85 75.3909 218.71 75.3942C219.086 75.3927 219.086 75.3927 219.47 75.3912C220.884 75.4008 222.089 75.4141 223.169 76.4327C223.68 77.3579 223.875 78.3268 224.091 79.3501C224.165 79.6847 224.165 79.6847 224.241 80.0261C224.4 80.7479 224.555 81.4703 224.711 82.1928C224.926 83.1743 225.143 84.1554 225.36 85.1365C225.439 85.4944 225.439 85.4944 225.519 85.8594C225.95 87.8094 226.422 89.747 226.961 91.6705C227.305 92.9519 227.365 94.0662 227.319 95.3806C226.57 95.0781 226.079 94.7841 225.688 94.067C225.424 93.4111 225.183 92.7503 224.948 92.0837C222.697 86.1524 219.019 80.9003 213.079 78.1537C210.381 77.0648 207.846 76.7693 204.96 76.7753C204.68 76.7748 204.4 76.7743 204.111 76.7738C203.188 76.7727 202.264 76.7734 201.341 76.7743C200.698 76.7742 200.055 76.7739 199.411 76.7736C198.065 76.7732 196.718 76.7737 195.371 76.775C193.646 76.7765 191.921 76.7756 190.196 76.774C188.868 76.7731 187.54 76.7734 186.212 76.7741C185.576 76.7743 184.94 76.774 184.303 76.7734C183.414 76.7727 182.525 76.7738 181.636 76.7753C181.243 76.7744 181.243 76.7744 180.842 76.7736C180.476 76.7747 180.476 76.7747 180.104 76.7759C179.789 76.7761 179.789 76.7761 179.468 76.7762C178.697 76.8166 177.954 76.9419 177.195 77.0792C177.189 83.2109 177.184 89.3426 177.181 95.4742C177.179 98.3211 177.178 101.168 177.174 104.015C177.172 106.495 177.17 108.976 177.169 111.456C177.169 112.771 177.168 114.085 177.166 115.399C177.164 116.635 177.164 117.87 177.164 119.106C177.164 119.561 177.164 120.015 177.163 120.47C177.161 121.088 177.162 121.707 177.162 122.326C177.162 122.672 177.162 123.019 177.162 123.377C177.139 124.159 177.139 124.159 177.466 124.717C178.55 125.076 179.593 125.028 180.723 125.029C180.974 125.03 181.224 125.032 181.482 125.033C182.313 125.037 183.143 125.039 183.974 125.04C184.553 125.042 185.132 125.044 185.711 125.045C186.927 125.048 188.144 125.049 189.36 125.05C190.91 125.052 192.46 125.058 194.011 125.066C195.208 125.071 196.406 125.072 197.604 125.073C198.175 125.074 198.746 125.076 199.317 125.079C204.256 125.108 209.017 124.924 212.908 121.47C214.898 119.264 216.098 116.588 216.827 113.747C217.054 112.904 217.217 112.407 217.874 111.81C218.123 111.671 218.123 111.671 218.378 111.529C218.411 113.251 218.374 114.959 218.281 116.678C217.932 123.227 218.092 129.732 218.456 136.274C218.585 138.614 218.691 140.942 218.649 143.287C217.32 142.091 217.005 140.394 216.663 138.702C215.913 135.006 214.427 131.266 211.161 129.084C208.218 127.412 205.469 126.826 202.109 126.839C201.84 126.839 201.57 126.839 201.292 126.839C200.403 126.839 199.515 126.841 198.627 126.843C198.009 126.844 197.392 126.844 196.775 126.845C195.153 126.846 193.53 126.848 191.908 126.851C190.252 126.854 188.596 126.855 186.939 126.857C183.691 126.859 180.443 126.864 177.195 126.87C177.189 133.001 177.184 139.133 177.181 145.265C177.179 148.112 177.178 150.958 177.174 153.805C177.172 156.286 177.17 158.766 177.169 161.247C177.169 162.561 177.168 163.875 177.166 165.189C177.164 166.425 177.164 167.661 177.164 168.897C177.164 169.351 177.164 169.806 177.163 170.26C177.161 170.879 177.162 171.497 177.162 172.116C177.162 172.463 177.162 172.81 177.162 173.167C177.139 173.949 177.139 173.949 177.466 174.507C178.3 174.802 179.099 174.811 179.978 174.814C180.267 174.816 180.556 174.817 180.854 174.819C181.17 174.819 181.487 174.819 181.812 174.82C182.313 174.822 182.313 174.822 182.825 174.824C183.741 174.827 184.658 174.829 185.574 174.83C186.149 174.831 186.723 174.832 187.298 174.833C189.1 174.837 190.902 174.839 192.704 174.841C194.775 174.842 196.846 174.846 198.916 174.854C200.522 174.86 202.128 174.863 203.734 174.863C204.69 174.863 205.647 174.865 206.603 174.87C212.923 174.9 218.627 174.81 223.797 170.739C224.019 170.565 224.242 170.392 224.472 170.212C228.844 166.566 230.948 161.346 233.009 156.206C233.366 156.206 233.724 156.206 234.092 156.206C233.935 158.849 233.271 161.349 232.636 163.91C232.418 164.793 232.201 165.677 231.986 166.561C231.934 166.776 231.881 166.992 231.827 167.213C231.403 168.98 231.064 170.755 230.757 172.545C230.437 174.061 229.868 175.356 228.674 176.391C227.791 176.683 227.181 176.685 226.253 176.67C225.739 176.663 225.739 176.663 225.213 176.657C225.025 176.653 224.837 176.65 224.644 176.647C224.022 176.637 223.4 176.628 222.778 176.62C221.836 176.608 220.894 176.594 219.952 176.581C217.233 176.542 214.513 176.509 211.794 176.477C211.484 176.474 211.175 176.47 210.856 176.466C204.54 176.395 198.224 176.358 191.907 176.326C191.104 176.322 190.301 176.317 189.498 176.313C184.351 176.287 179.204 176.261 174.056 176.238C171.972 176.229 169.888 176.219 167.803 176.209C166.34 176.201 164.876 176.195 163.412 176.189C162.515 176.186 161.617 176.181 160.719 176.176C160.304 176.174 159.889 176.172 159.474 176.171C158.911 176.17 158.347 176.166 157.783 176.163C157.468 176.161 157.153 176.16 156.829 176.158C156.062 176.122 156.062 176.122 155.249 175.853C155.437 175.329 155.437 175.329 155.791 174.776C156.381 174.61 156.381 174.61 157.111 174.541C159.651 174.157 161.931 173.097 163.54 171.066C164.72 169.21 165.306 167.206 165.31 165.018C165.311 164.737 165.312 164.456 165.314 164.166C165.314 163.859 165.313 163.551 165.313 163.235C165.314 162.907 165.315 162.579 165.316 162.241C165.319 161.332 165.32 160.423 165.321 159.514C165.322 158.533 165.325 157.552 165.327 156.571C165.332 154.201 165.335 151.832 165.337 149.463C165.339 148.346 165.34 147.229 165.341 146.111C165.346 142.395 165.35 138.679 165.352 134.963C165.352 133.999 165.353 133.036 165.354 132.072C165.354 131.712 165.354 131.712 165.354 131.346C165.356 127.469 165.363 123.593 165.372 119.717C165.381 115.732 165.386 111.748 165.387 107.764C165.387 105.529 165.389 103.294 165.396 101.059C165.402 99.1541 165.404 97.2496 165.402 95.3449C165.401 94.3747 165.401 93.4045 165.406 92.4342C165.669 85.875 165.669 85.875 163.208 79.9893C161.025 77.8932 158.075 77.1515 155.249 76.2718C155.791 75.4644 155.791 75.4644 156.277 75.3635Z" fill="#E3BC9A"/>
<path d="M239.241 75.7341C249.702 75.7341 260.163 75.7341 270.941 75.7341C270.851 76.0006 270.762 76.267 270.67 76.5415C269.993 76.7324 269.343 76.8797 268.655 77.0125C266.158 77.569 264.281 78.5182 262.711 80.5954C261.097 83.3538 260.756 86.3497 260.782 89.481C260.781 89.8467 260.78 90.2124 260.778 90.5781C260.775 91.5715 260.778 92.5648 260.782 93.5582C260.786 94.6338 260.783 95.7094 260.781 96.785C260.779 98.8867 260.782 100.988 260.787 103.09C260.792 105.538 260.792 107.986 260.792 110.434C260.792 114.801 260.797 119.167 260.804 123.533C260.812 127.771 260.816 132.008 260.816 136.245C260.816 136.507 260.816 136.768 260.816 137.037C260.816 137.298 260.815 137.559 260.815 137.828C260.815 142.655 260.818 147.483 260.823 152.31C260.825 154.017 260.825 155.724 260.826 157.431C260.826 159.509 260.828 161.587 260.833 163.664C260.836 164.725 260.838 165.785 260.837 166.845C260.836 167.815 260.838 168.784 260.842 169.754C260.844 170.273 260.842 170.791 260.841 171.31C260.843 171.616 260.845 171.922 260.846 172.237C260.847 172.502 260.847 172.767 260.847 173.04C260.871 173.769 260.871 173.769 261.458 174.508C262.249 174.8 263.008 174.812 263.846 174.815C264.108 174.816 264.37 174.818 264.64 174.819C264.926 174.82 265.211 174.82 265.506 174.82C265.959 174.822 265.959 174.822 266.422 174.824C267.425 174.828 268.427 174.83 269.429 174.832C270.128 174.833 270.827 174.835 271.526 174.836C272.806 174.839 274.086 174.84 275.366 174.841C277.24 174.842 279.114 174.847 280.987 174.855C282.618 174.861 284.248 174.863 285.878 174.864C286.567 174.865 287.257 174.867 287.946 174.87C295.081 174.905 300.775 174.287 306.197 169.226C308.58 166.769 310.117 163.806 311.601 160.764C312.357 159.218 313.189 157.713 314.02 156.206C314.11 156.206 314.199 156.206 314.291 156.206C314.422 158.687 314.051 160.858 313.431 163.255C313.341 163.611 313.252 163.966 313.163 164.322C312.978 165.06 312.79 165.798 312.6 166.535C312.356 167.478 312.119 168.423 311.884 169.369C311.701 170.1 311.515 170.831 311.329 171.561C311.198 172.078 311.068 172.596 310.939 173.114C310.858 173.426 310.776 173.739 310.692 174.061C310.622 174.337 310.552 174.612 310.479 174.896C310.211 175.628 310.067 175.964 309.414 176.392C308.681 176.491 308.681 176.491 307.77 176.488C307.42 176.488 307.071 176.489 306.711 176.49C306.317 176.487 305.923 176.483 305.529 176.48C305.106 176.479 304.682 176.479 304.259 176.479C303.074 176.477 301.889 176.471 300.705 176.463C299.689 176.457 298.673 176.455 297.658 176.452C294.697 176.443 291.737 176.428 288.776 176.41C286.27 176.396 283.764 176.382 281.259 176.369C276.098 176.343 270.937 176.314 265.777 176.282C264.874 176.277 263.971 176.271 263.068 176.266C260.666 176.252 258.264 176.237 255.862 176.22C254.852 176.213 253.842 176.207 252.831 176.201C249.173 176.18 245.514 176.15 241.857 176.033C241.597 176.027 241.337 176.022 241.069 176.016C240.834 176.007 240.599 175.998 240.357 175.988C240.153 175.982 239.949 175.975 239.739 175.968C239.241 175.853 239.241 175.853 238.699 175.046C239.042 174.968 239.386 174.889 239.739 174.808C243.039 174.024 245.698 173.268 247.745 170.393C249.168 168.017 249.425 165.397 249.403 162.692C249.405 162.36 249.407 162.029 249.408 161.688C249.412 160.779 249.411 159.87 249.407 158.961C249.405 157.976 249.409 156.992 249.412 156.007C249.416 154.083 249.415 152.159 249.412 150.234C249.41 148.669 249.409 147.104 249.411 145.539C249.411 145.316 249.411 145.093 249.411 144.863C249.411 144.409 249.412 143.955 249.412 143.501C249.415 139.253 249.412 135.004 249.406 130.756C249.401 127.116 249.402 123.477 249.407 119.837C249.413 115.603 249.415 111.369 249.412 107.135C249.411 106.683 249.411 106.231 249.411 105.779C249.41 105.557 249.41 105.334 249.41 105.105C249.409 103.543 249.411 101.982 249.413 100.42C249.416 98.5146 249.415 96.6094 249.41 94.7042C249.407 93.7335 249.406 92.7629 249.409 91.7922C249.413 90.7369 249.409 89.6818 249.403 88.6266C249.406 88.324 249.408 88.0214 249.411 87.7096C249.384 84.9674 248.853 82.1166 247.032 79.9625C245.327 78.3132 243.398 77.509 241.124 76.941C239.829 76.611 239.829 76.611 239.241 75.7341Z" fill="#E3BC9A"/>
<path d="M118.671 75.7341C129.222 75.7341 139.772 75.7341 150.642 75.7341C149.949 76.4225 149.384 76.5049 148.441 76.7602C145.591 77.6038 143.544 79 142.026 81.5879C141.919 81.7877 141.812 81.9875 141.701 82.1934C141.597 82.3877 141.492 82.582 141.385 82.7822C140.651 84.4243 140.519 86.0043 140.454 87.7727C140.444 88.031 140.433 88.2893 140.423 88.5555C140.303 91.7893 140.308 95.0236 140.311 98.2592C140.311 98.9593 140.31 99.6593 140.31 100.359C140.309 102.048 140.309 103.736 140.31 105.424C140.31 106.797 140.31 108.171 140.31 109.544C140.31 109.839 140.31 109.839 140.31 110.14C140.31 110.54 140.31 110.94 140.31 111.34C140.309 115.073 140.31 118.805 140.311 122.537C140.313 125.731 140.312 128.926 140.311 132.12C140.31 135.844 140.309 139.568 140.31 143.292C140.31 143.689 140.31 144.087 140.31 144.485C140.31 144.68 140.31 144.876 140.31 145.078C140.31 146.448 140.31 147.819 140.309 149.19C140.309 151.037 140.309 152.884 140.311 154.73C140.311 155.406 140.311 156.081 140.31 156.757C139.921 164.627 139.921 164.627 143.056 171.547C145.043 173.3 147.305 174.119 149.829 174.81C150.642 175.046 150.642 175.046 151.455 175.584C151.455 175.762 151.455 175.94 151.455 176.123C140.457 176.123 129.46 176.123 118.129 176.123C118.671 175.046 118.671 175.046 118.942 174.777C119.443 174.696 119.946 174.625 120.449 174.558C122.964 174.153 125.106 173.116 126.638 171.028C128.293 168.292 128.859 165.353 128.832 162.203C128.833 161.877 128.835 161.551 128.836 161.215C128.839 160.321 128.838 159.427 128.834 158.532C128.831 157.564 128.834 156.595 128.836 155.627C128.84 153.734 128.838 151.841 128.834 149.948C128.829 147.74 128.83 145.533 128.831 143.325C128.833 139.384 128.829 135.444 128.822 131.503C128.816 127.685 128.814 123.867 128.817 120.049C128.82 115.885 128.82 111.72 128.816 107.555C128.816 107.111 128.816 106.666 128.815 106.222C128.815 106.003 128.815 105.784 128.815 105.559C128.813 104.022 128.814 102.486 128.815 100.949C128.816 99.0756 128.815 97.2018 128.809 95.3279C128.807 94.3731 128.805 93.4182 128.807 92.4634C128.81 91.4257 128.806 90.3882 128.801 89.3506C128.803 89.0524 128.804 88.7542 128.806 88.447C128.777 84.9186 127.935 81.9568 125.58 79.2666C123.916 77.8617 122.512 77.3625 120.428 76.9426C119.926 76.8327 119.433 76.6895 118.942 76.5415C118.853 76.2751 118.763 76.0087 118.671 75.7341Z" fill="#E3BC9A"/>
<path d="M135.741 50.435C136.242 50.7936 136.242 50.7936 136.711 51.2552C136.889 51.4278 137.067 51.6004 137.251 51.7782C137.439 51.966 137.626 52.1538 137.82 52.3473C138.016 52.5402 138.211 52.7332 138.413 52.9319C138.826 53.3403 139.238 53.7501 139.648 54.1612C140.277 54.7889 140.911 55.4099 141.546 56.0306C141.947 56.4285 142.347 56.8268 142.747 57.2254C142.937 57.4105 143.127 57.5956 143.323 57.7863C144.062 58.5346 144.612 59.1669 145.06 60.1208C144.882 61.4656 143.959 62.1603 143.002 63.0718C142.8 63.2714 142.598 63.4709 142.389 63.6765C141.961 64.0976 141.53 64.5165 141.097 64.9332C140.435 65.5711 139.779 66.2152 139.124 66.8608C138.707 67.2691 138.289 67.677 137.872 68.0845C137.675 68.2768 137.478 68.4692 137.275 68.6673C137.09 68.8452 136.905 69.0232 136.714 69.2065C136.552 69.363 136.39 69.5195 136.223 69.6808C135.727 70.094 135.246 70.3578 134.657 70.6203C132.703 69.0034 130.903 67.228 129.1 65.4485C128.75 65.1038 128.399 64.7604 128.046 64.4182C127.532 63.9194 127.022 63.4172 126.513 62.9141C126.355 62.7622 126.198 62.6102 126.035 62.4536C125.41 61.8293 124.944 61.3057 124.624 60.4784C124.635 59.6934 124.786 59.4909 125.33 58.9286C125.506 58.744 125.682 58.5594 125.863 58.3691C126.083 58.1489 126.303 57.9286 126.529 57.7017C126.807 57.4187 127.086 57.1355 127.364 56.8524C128.16 56.046 128.963 55.2466 129.768 54.4494C130.276 53.9461 130.783 53.4414 131.289 52.9366C131.612 52.616 131.935 52.2955 132.258 51.9752C132.409 51.8243 132.561 51.6735 132.716 51.5182C134.249 50.0054 134.249 50.0054 135.741 50.435Z" fill="#E3BC9A"/>
</svg>
